# xmcd
#
# Track frame offsets:
#	150
#	14825
#	32865
#	44205
#	62539
#	79135
#	92422
#	107570
#	122675
#	135072
#	150587
#
# Disc length: 2244 seconds
#
# Revision: 1
# Processed by: cddbd v1.5.1PL0 Copyright (c) Steve Scherf et al.
# Submitted via: audiograbber 1.82.02
#
DISCID=8608c20b
DTITLE=Alison Kraus and Union Station - Home on the Highways
DYEAR=1900
DGENRE=Bluegrass
TTITLE0=Crazy as Me
TTITLE1=Daylight
TTITLE2=Rain Please Go Away
TTITLE3=Ghost in This House
TTITLE4=Never Get Off The  Ground
TTITLE5=Unionhouse Branch
TTITLE6=Momma Cried
TTITLE7=Let Me Touch You For Awhile
TTITLE8=It All Comes Down To You
TTITLE9=Borderline
TTITLE10=I Am A Man Of Constant Sorrow
EXTD=
EXTT0=
EXTT1=
EXTT2=
EXTT3=
EXTT4=
EXTT5=
EXTT6=
EXTT7=
EXTT8=
EXTT9=
EXTT10=
PLAYORDER=
